<?xml version="1.0" encoding="utf-8"?>
<svg xmlns="http://www.w3.org/2000/svg" xmlns:xlink="http://www.w3.org/1999/xlink" style="margin: auto; background: rgba(0, 0, 0, 0) none repeat scroll 0% 0%; display: block; shape-rendering: auto;" width="234px" height="234px" viewBox="0 0 100 100" preserveAspectRatio="xMidYMid">
<g transform="rotate(0 50 50)">
  <rect x="49.5" y="16.5" rx="0" ry="0" width="1" height="15" fill="#ff91af">
    <animate attributeName="opacity" values="1;0" keyTimes="0;1" dur="2.1739130434782608s" begin="-1.9927536231884055s" repeatCount="indefinite"></animate>
  </rect>
</g><g transform="rotate(30 50 50)">
  <rect x="49.5" y="16.5" rx="0" ry="0" width="1" height="15" fill="#ff91af">
    <animate attributeName="opacity" values="1;0" keyTimes="0;1" dur="2.1739130434782608s" begin="-1.8115942028985506s" repeatCount="indefinite"></animate>
  </rect>
</g><g transform="rotate(60 50 50)">
  <rect x="49.5" y="16.5" rx="0" ry="0" width="1" height="15" fill="#ff91af">
    <animate attributeName="opacity" values="1;0" keyTimes="0;1" dur="2.1739130434782608s" begin="-1.6304347826086956s" repeatCount="indefinite"></animate>
  </rect>
</g><g transform="rotate(90 50 50)">
  <rect x="49.5" y="16.5" rx="0" ry="0" width="1" height="15" fill="#ff91af">
    <animate attributeName="opacity" values="1;0" keyTimes="0;1" dur="2.1739130434782608s" begin="-1.4492753623188404s" repeatCount="indefinite"></animate>
  </rect>
</g><g transform="rotate(120 50 50)">
  <rect x="49.5" y="16.5" rx="0" ry="0" width="1" height="15" fill="#ff91af">
    <animate attributeName="opacity" values="1;0" keyTimes="0;1" dur="2.1739130434782608s" begin="-1.2681159420289854s" repeatCount="indefinite"></animate>
  </rect>
</g><g transform="rotate(150 50 50)">
  <rect x="49.5" y="16.5" rx="0" ry="0" width="1" height="15" fill="#ff91af">
    <animate attributeName="opacity" values="1;0" keyTimes="0;1" dur="2.1739130434782608s" begin="-1.0869565217391304s" repeatCount="indefinite"></animate>
  </rect>
</g><g transform="rotate(180 50 50)">
  <rect x="49.5" y="16.5" rx="0" ry="0" width="1" height="15" fill="#ff91af">
    <animate attributeName="opacity" values="1;0" keyTimes="0;1" dur="2.1739130434782608s" begin="-0.9057971014492753s" repeatCount="indefinite"></animate>
  </rect>
</g><g transform="rotate(210 50 50)">
  <rect x="49.5" y="16.5" rx="0" ry="0" width="1" height="15" fill="#ff91af">
    <animate attributeName="opacity" values="1;0" keyTimes="0;1" dur="2.1739130434782608s" begin="-0.7246376811594202s" repeatCount="indefinite"></animate>
  </rect>
</g><g transform="rotate(240 50 50)">
  <rect x="49.5" y="16.5" rx="0" ry="0" width="1" height="15" fill="#ff91af">
    <animate attributeName="opacity" values="1;0" keyTimes="0;1" dur="2.1739130434782608s" begin="-0.5434782608695652s" repeatCount="indefinite"></animate>
  </rect>
</g><g transform="rotate(270 50 50)">
  <rect x="49.5" y="16.5" rx="0" ry="0" width="1" height="15" fill="#ff91af">
    <animate attributeName="opacity" values="1;0" keyTimes="0;1" dur="2.1739130434782608s" begin="-0.3623188405797101s" repeatCount="indefinite"></animate>
  </rect>
</g><g transform="rotate(300 50 50)">
  <rect x="49.5" y="16.5" rx="0" ry="0" width="1" height="15" fill="#ff91af">
    <animate attributeName="opacity" values="1;0" keyTimes="0;1" dur="2.1739130434782608s" begin="-0.18115942028985504s" repeatCount="indefinite"></animate>
  </rect>
</g><g transform="rotate(330 50 50)">
  <rect x="49.5" y="16.5" rx="0" ry="0" width="1" height="15" fill="#ff91af">
    <animate attributeName="opacity" values="1;0" keyTimes="0;1" dur="2.1739130434782608s" begin="0s" repeatCount="indefinite"></animate>
  </rect>
</g>
<!-- [ldio] generated by https://loading.io/ --></svg>